<?xml version="1.0" encoding="utf-8"?>
<!-- Generator: Adobe Illustrator 27.9.2, SVG Export Plug-In . SVG Version: 6.00 Build 0)  -->
<svg version="1.1" id="Calque_1" xmlns="http://www.w3.org/2000/svg" xmlns:xlink="http://www.w3.org/1999/xlink" x="0px" y="0px"
	 viewBox="0 0 30 30" style="enable-background:new 0 0 30 30;" xml:space="preserve">
<g id="Calque_4">
	<g>
		<g id="XMLID_00000065040421707005931950000003695405140552528268_">
			<g>
				<path id="XMLID_00000065032251637150209290000010859123313753375909_" d="M24.3,9c-0.3,0.1-0.6,0.2-0.9,0.3
					c0.4-0.4,0.7-0.9,0.8-1.5c0-0.1,0-0.3-0.1-0.3s-0.3,0-0.4,0c-0.7,0.4-1.4,0.7-2.1,0.8c-0.8-0.7-1.8-1.2-2.9-1.2
					c-2.2,0-4.1,1.8-4.1,4.1c0,0.2,0,0.4,0,0.5c-2.8-0.2-5.4-1.6-7.2-3.8C7.3,7.8,7.2,7.8,7.1,7.8S6.9,7.9,6.9,8
					c-0.4,0.6-0.6,1.3-0.6,2.1c0,1,0.4,1.9,1,2.6c-0.2-0.1-0.4-0.1-0.5-0.2c0,0-0.1,0-0.2,0c-0.1,0.1-0.2,0.2-0.2,0.3c0,0,0,0,0,0.1
					c0,1.5,0.8,2.8,2,3.5c-0.1,0-0.2,0-0.3,0s-0.2,0-0.3,0.1s-0.1,0.2-0.1,0.3c0.4,1.4,1.6,2.4,3,2.7c-1.2,0.7-2.5,1.1-3.9,1.1
					c-0.3,0-0.6,0-0.9-0.1c-0.1,0-0.3,0.1-0.3,0.2s0,0.3,0.1,0.4c1.8,1.1,3.8,1.7,5.9,1.7c4.2,0,6.8-2,8.2-3.6
					c1.8-2,2.8-4.8,2.8-7.4c0-0.1,0-0.2,0-0.3c0.7-0.5,1.3-1.2,1.8-1.9c0.1-0.1,0.1-0.3,0-0.4C24.5,9,24.4,9,24.3,9z"/>
			</g>
		</g>
	</g>
</g>
</svg>
